<svg width="720" height="900" viewBox="0 0 720 900" fill="none" xmlns="http://www.w3.org/2000/svg">
<path d="M48.4652 179.806C48.3141 178.598 48.1932 178.477 46.9542 178.296C48.163 178.145 48.2839 178.024 48.4652 176.786C48.6163 177.994 48.7372 178.115 49.9761 178.296C48.7674 178.447 48.6465 178.598 48.4652 179.806Z" fill="white" fill-opacity="0.1"/>
<path d="M61.7817 13.33C61.6306 12.1218 61.5098 12.0011 60.2708 11.8198C61.4795 11.6686 61.6004 11.5479 61.7817 10.3096C61.9328 11.5177 62.0537 11.6385 63.2927 11.8198C62.0839 11.9707 61.963 12.1218 61.7817 13.33Z" fill="white" fill-opacity="0.1"/>
<path d="M147.229 118.383C147.078 117.174 146.957 117.054 145.718 116.872C146.927 116.721 147.048 116.6 147.229 115.362C147.38 116.57 147.501 116.691 148.74 116.872C147.531 117.023 147.411 117.174 147.229 118.383Z" fill="white" fill-opacity="0.1"/>
<path d="M238.951 27.703C238.951 28.3201 238.45 28.8205 237.832 28.8205C237.215 28.8205 236.714 28.3201 236.714 27.703C236.714 27.0857 237.215 26.5854 237.832 26.5854C238.45 26.5854 238.951 27.0857 238.951 27.703Z" fill="white" fill-opacity="0.1"/>
<path d="M84.8953 78.2196C84.8953 78.8367 84.3946 79.3371 83.777 79.3371C83.1597 79.3371 82.6589 78.8367 82.6589 78.2196C82.6589 77.6023 83.1597 77.1021 83.777 77.1021C84.3946 77.1021 84.8953 77.6023 84.8953 78.2196Z" fill="white" fill-opacity="0.1"/>
<path d="M90.2495 181.583C90.2495 182.2 89.7491 182.7 89.1315 182.7C88.5141 182.7 88.0134 182.2 88.0134 181.583C88.0134 180.966 88.5141 180.465 89.1315 180.465C89.7491 180.465 90.2495 180.966 90.2495 181.583Z" fill="white" fill-opacity="0.1"/>
<path d="M105.724 121.287C105.724 121.904 105.223 122.405 104.605 122.405C103.988 122.405 103.487 121.904 103.487 121.287C103.487 120.67 103.988 120.17 104.605 120.17C105.223 120.17 105.724 120.67 105.724 121.287Z" fill="white" fill-opacity="0.1"/>
<path d="M306.332 11.1236C305.553 11.9019 304.29 11.9019 303.511 11.1236C302.733 10.345 302.733 9.08277 303.511 8.30442C304.29 7.52581 305.553 7.52581 306.332 8.30442C307.111 9.08277 307.111 10.345 306.332 11.1236Z" fill="white" fill-opacity="0.15"/>
<path d="M187.904 78.3797C187.904 78.9968 187.403 79.4973 186.786 79.4973C186.168 79.4973 185.668 78.9968 185.668 78.3797C185.668 77.7624 186.168 77.2622 186.786 77.2622C187.403 77.2622 187.904 77.7624 187.904 78.3797Z" fill="white" fill-opacity="0.15"/>
<path d="M125.405 4.08245C125.254 2.87428 125.133 2.75351 123.894 2.57223C125.103 2.42108 125.224 2.30031 125.405 1.06201C125.556 2.27019 125.677 2.39095 126.916 2.57223C125.707 2.72312 125.586 2.87428 125.405 4.08245Z" fill="white" fill-opacity="0.1"/>
<path d="M154.196 82.1308C154.044 80.9226 153.924 80.8018 152.685 80.6206C153.893 80.4694 154.014 80.3487 154.196 79.1104C154.347 80.3185 154.468 80.4393 155.706 80.6206C154.498 80.7715 154.377 80.9226 154.196 82.1308Z" fill="white" fill-opacity="0.1"/>
<path d="M475.223 384.39C475.374 385.598 475.495 385.719 476.734 385.9C475.525 386.051 475.404 386.172 475.223 387.41C475.072 386.202 474.951 386.081 473.712 385.9C474.921 385.749 475.042 385.598 475.223 384.39Z" fill="white" fill-opacity="0.1"/>
<path d="M558.821 140.605C558.972 141.813 559.093 141.934 560.332 142.115C559.123 142.266 559.002 142.387 558.821 143.625C558.67 142.417 558.549 142.296 557.31 142.115C558.519 141.964 558.64 141.813 558.821 140.605Z" fill="white" fill-opacity="0.1"/>
<path d="M545.504 307.08C545.656 308.288 545.776 308.409 547.015 308.59C545.807 308.742 545.686 308.862 545.504 310.101C545.353 308.892 545.232 308.772 543.993 308.59C545.202 308.439 545.323 308.288 545.504 307.08Z" fill="white" fill-opacity="0.1"/>
<path d="M460.057 202.028C460.208 203.236 460.329 203.357 461.568 203.538C460.359 203.689 460.238 203.81 460.057 205.048C459.906 203.84 459.785 203.719 458.546 203.538C459.755 203.387 459.876 203.236 460.057 202.028Z" fill="white" fill-opacity="0.1"/>
<path d="M584.05 386.293C584.05 385.676 584.55 385.175 585.168 385.175C585.786 385.175 586.286 385.676 586.286 386.293C586.286 386.91 585.786 387.41 585.168 387.41C584.55 387.41 584.05 386.91 584.05 386.293Z" fill="white" fill-opacity="0.1"/>
<path d="M368.335 292.707C368.335 292.09 368.836 291.59 369.454 291.59C370.071 291.59 370.572 292.09 370.572 292.707C370.572 293.325 370.071 293.825 369.454 293.825C368.836 293.825 368.335 293.325 368.335 292.707Z" fill="white" fill-opacity="0.1"/>
<path d="M522.391 242.191C522.391 241.573 522.892 241.073 523.509 241.073C524.126 241.073 524.627 241.573 524.627 242.191C524.627 242.808 524.126 243.308 523.509 243.308C522.892 243.308 522.391 242.808 522.391 242.191Z" fill="white" fill-opacity="0.1"/>
<path d="M517.037 138.828C517.037 138.21 517.537 137.71 518.155 137.71C518.772 137.71 519.273 138.21 519.273 138.828C519.273 139.445 518.772 139.945 518.155 139.945C517.537 139.945 517.037 139.445 517.037 138.828Z" fill="white" fill-opacity="0.1"/>
<path d="M501.563 199.123C501.563 198.506 502.063 198.006 502.681 198.006C503.298 198.006 503.799 198.506 503.799 199.123C503.799 199.741 503.298 200.241 502.681 200.241C502.063 200.241 501.563 199.741 501.563 199.123Z" fill="white" fill-opacity="0.1"/>
<path d="M294.898 374.346C295.906 373.9 297.084 374.355 297.53 375.362C297.976 376.369 297.52 377.546 296.513 377.992C295.506 378.437 294.328 377.983 293.882 376.976C293.436 375.969 293.891 374.792 294.898 374.346Z" fill="white" fill-opacity="0.15"/>
<path d="M449.071 357.674C449.071 356.573 449.964 355.681 451.065 355.681C452.167 355.681 453.06 356.573 453.06 357.674C453.06 358.775 452.167 359.668 451.065 359.668C449.964 359.668 449.071 358.775 449.071 357.674Z" fill="white" fill-opacity="0.15"/>
<path d="M300.954 309.287C301.733 308.508 302.996 308.508 303.775 309.287C304.554 310.065 304.554 311.328 303.775 312.106C302.996 312.885 301.733 312.885 300.954 312.106C300.175 311.328 300.175 310.065 300.954 309.287Z" fill="white" fill-opacity="0.15"/>
<path d="M326.167 358.55C326.167 357.933 326.667 357.433 327.285 357.433C327.902 357.433 328.403 357.933 328.403 358.55C328.403 359.168 327.902 359.668 327.285 359.668C326.667 359.668 326.167 359.168 326.167 358.55Z" fill="white" fill-opacity="0.15"/>
<path d="M419.382 242.031C419.382 241.414 419.883 240.913 420.5 240.913C421.118 240.913 421.618 241.414 421.618 242.031C421.618 242.648 421.118 243.148 420.5 243.148C419.883 243.148 419.382 242.648 419.382 242.031Z" fill="white" fill-opacity="0.15"/>
<path d="M481.881 316.328C482.032 317.536 482.153 317.657 483.392 317.838C482.183 317.989 482.062 318.11 481.881 319.348C481.73 318.14 481.609 318.019 480.37 317.838C481.579 317.687 481.7 317.536 481.881 316.328Z" fill="white" fill-opacity="0.1"/>
<path d="M376.521 364.417C376.672 365.625 376.793 365.746 378.032 365.927C376.823 366.078 376.702 366.199 376.521 367.437C376.37 366.229 376.249 366.108 375.01 365.927C376.218 365.776 376.339 365.625 376.521 364.417Z" fill="white" fill-opacity="0.1"/>
<path d="M453.091 238.28C453.242 239.488 453.363 239.609 454.602 239.79C453.393 239.941 453.272 240.062 453.091 241.3C452.94 240.092 452.819 239.971 451.58 239.79C452.788 239.639 452.909 239.488 453.091 238.28Z" fill="white" fill-opacity="0.1"/>
<path d="M520.783 353.319C520.934 354.528 521.055 354.648 522.294 354.83C521.085 354.981 520.964 355.102 520.783 356.34C520.632 355.132 520.511 355.011 519.272 354.83C520.481 354.679 520.602 354.528 520.783 353.319Z" fill="white" fill-opacity="0.1"/>
<path d="M612.659 587.202C612.81 585.994 612.931 585.873 614.17 585.692C612.961 585.54 612.84 585.42 612.659 584.181C612.508 585.39 612.387 585.51 611.148 585.692C612.357 585.843 612.477 585.994 612.659 587.202Z" fill="white" fill-opacity="0.1"/>
<path d="M696.303 729.362C696.454 728.154 696.574 728.033 697.813 727.852C696.605 727.701 696.484 727.58 696.303 726.342C696.151 727.55 696.031 727.67 694.792 727.852C696 728.003 696.121 728.154 696.303 729.362Z" fill="white" fill-opacity="0.1"/>
<path d="M600.063 721.025C600.214 719.816 600.335 719.696 601.574 719.514C600.365 719.363 600.244 719.242 600.063 718.004C599.912 719.212 599.791 719.333 598.552 719.514C599.761 719.665 599.882 719.816 600.063 721.025Z" fill="white" fill-opacity="0.1"/>
<path d="M435.231 629.139C435.382 627.931 435.503 627.81 436.742 627.629C435.533 627.478 435.413 627.357 435.231 626.119C435.08 627.327 434.959 627.448 433.72 627.629C434.929 627.78 435.05 627.931 435.231 629.139Z" fill="white" fill-opacity="0.1"/>
<path d="M523.944 533.196C524.095 531.988 524.216 531.867 525.455 531.686C524.246 531.534 524.125 531.414 523.944 530.175C523.793 531.383 523.672 531.504 522.433 531.686C523.642 531.836 523.763 531.988 523.944 533.196Z" fill="white" fill-opacity="0.1"/>
<path d="M543.153 579.203C543.153 579.82 543.653 580.32 544.271 580.32C544.888 580.32 545.389 579.82 545.389 579.203C545.389 578.586 544.888 578.085 544.271 578.085C543.653 578.085 543.153 578.586 543.153 579.203Z" fill="white" fill-opacity="0.1"/>
<path d="M377.061 687.068C377.061 687.685 377.562 688.185 378.179 688.185C378.797 688.185 379.297 687.685 379.297 687.068C379.297 686.45 378.797 685.95 378.179 685.95C377.562 685.95 377.061 686.45 377.061 687.068Z" fill="white" fill-opacity="0.1"/>
<path d="M633.774 611.607C633.774 612.224 634.274 612.725 634.892 612.725C635.509 612.725 636.01 612.224 636.01 611.607C636.01 610.99 635.509 610.49 634.892 610.49C634.274 610.49 633.774 610.99 633.774 611.607Z" fill="white" fill-opacity="0.1"/>
<path d="M422.595 529.118C422.595 529.735 423.095 530.235 423.713 530.235C424.33 530.235 424.831 529.735 424.831 529.118C424.831 528.5 424.33 528 423.713 528C423.095 528 422.595 528.5 422.595 529.118Z" fill="white" fill-opacity="0.1"/>
<path d="M660.407 654.886C660.407 655.503 660.907 656.003 661.525 656.003C662.142 656.003 662.643 655.503 662.643 654.886C662.643 654.269 662.142 653.768 661.525 653.768C660.907 653.768 660.407 654.269 660.407 654.886Z" fill="white" fill-opacity="0.1"/>
<path d="M625.618 744.133C625.618 744.751 626.118 745.251 626.736 745.251C627.353 745.251 627.854 744.751 627.854 744.133C627.854 743.516 627.353 743.016 626.736 743.016C626.118 743.016 625.618 743.516 625.618 744.133Z" fill="white" fill-opacity="0.1"/>
<path d="M605.599 635.651C605.599 636.268 606.1 636.769 606.717 636.769C607.335 636.769 607.835 636.268 607.835 635.651C607.835 635.034 607.335 634.534 606.717 634.534C606.1 634.534 605.599 635.034 605.599 635.651Z" fill="white" fill-opacity="0.1"/>
<path d="M621.275 679.136C622.282 679.582 623.46 679.127 623.906 678.12C624.352 677.114 623.897 675.936 622.89 675.49C621.882 675.045 620.704 675.5 620.258 676.506C619.813 677.513 620.268 678.69 621.275 679.136Z" fill="white" fill-opacity="0.15"/>
<path d="M474.571 673.59C474.571 674.691 475.464 675.584 476.565 675.584C477.667 675.584 478.56 674.691 478.56 673.59C478.56 672.489 477.667 671.597 476.565 671.597C475.464 671.597 474.571 672.489 474.571 673.59Z" fill="white" fill-opacity="0.15"/>
<path d="M540.711 640.624C541.49 641.402 542.752 641.402 543.531 640.624C544.31 639.845 544.31 638.583 543.531 637.805C542.752 637.026 541.49 637.026 540.711 637.805C539.932 638.583 539.932 639.845 540.711 640.624Z" fill="white" fill-opacity="0.15"/>
<path d="M612.627 537.997C612.627 538.614 613.128 539.114 613.745 539.114C614.363 539.114 614.864 538.614 614.864 537.997C614.864 537.38 614.363 536.879 613.745 536.879C613.128 536.879 612.627 537.38 612.627 537.997Z" fill="white" fill-opacity="0.15"/>
<path d="M490.251 569.068C490.251 569.685 490.752 570.186 491.369 570.186C491.987 570.186 492.487 569.685 492.487 569.068C492.487 568.451 491.987 567.95 491.369 567.95C490.752 567.95 490.251 568.451 490.251 569.068Z" fill="white" fill-opacity="0.15"/>
<path d="M478.674 743.06C478.825 741.852 478.946 741.732 480.185 741.55C478.976 741.399 478.855 741.278 478.674 740.04C478.523 741.248 478.402 741.369 477.163 741.55C478.372 741.701 478.492 741.852 478.674 743.06Z" fill="white" fill-opacity="0.1"/>
<path d="M391.149 600.148C391.3 598.94 391.421 598.819 392.66 598.638C391.451 598.487 391.33 598.366 391.149 597.127C390.998 598.336 390.877 598.456 389.638 598.638C390.847 598.789 390.967 598.94 391.149 600.148Z" fill="white" fill-opacity="0.1"/>
<path d="M335.51 652.768C335.661 651.56 335.782 651.439 337.021 651.258C335.813 651.107 335.692 650.986 335.51 649.748C335.359 650.956 335.238 651.077 333.999 651.258C335.208 651.409 335.329 651.56 335.51 652.768Z" fill="white" fill-opacity="0.1"/>
<path d="M421.3 764.957C421.451 766.165 421.572 766.286 422.811 766.467C421.603 766.618 421.482 766.739 421.3 767.977C421.149 766.769 421.028 766.648 419.789 766.467C420.998 766.316 421.119 766.165 421.3 764.957Z" fill="white" fill-opacity="0.1"/>
<path d="M325.061 773.294C325.212 774.502 325.333 774.623 326.572 774.804C325.363 774.956 325.242 775.076 325.061 776.315C324.91 775.107 324.789 774.986 323.55 774.804C324.759 774.654 324.879 774.502 325.061 773.294Z" fill="white" fill-opacity="0.1"/>
<path d="M125.764 707C125.915 708.208 126.036 708.329 127.275 708.51C126.066 708.661 125.945 708.782 125.764 710.021C125.613 708.812 125.492 708.692 124.253 708.51C125.462 708.359 125.583 708.208 125.764 707Z" fill="white" fill-opacity="0.1"/>
<path d="M102.059 807.251C102.059 806.634 102.559 806.134 103.177 806.134C103.795 806.134 104.295 806.634 104.295 807.251C104.295 807.869 103.795 808.369 103.177 808.369C102.559 808.369 102.059 807.869 102.059 807.251Z" fill="white" fill-opacity="0.1"/>
<path d="M358.771 882.712C358.771 882.094 359.272 881.594 359.89 881.594C360.507 881.594 361.008 882.094 361.008 882.712C361.008 883.329 360.507 883.829 359.89 883.829C359.272 883.829 358.771 883.329 358.771 882.712Z" fill="white" fill-opacity="0.1"/>
<path d="M385.404 839.433C385.404 838.816 385.905 838.315 386.523 838.315C387.14 838.315 387.641 838.816 387.641 839.433C387.641 840.05 387.14 840.551 386.523 840.551C385.905 840.551 385.404 840.05 385.404 839.433Z" fill="white" fill-opacity="0.1"/>
<path d="M350.616 750.185C350.616 749.568 351.116 749.068 351.734 749.068C352.351 749.068 352.852 749.568 352.852 750.185C352.852 750.803 352.351 751.303 351.734 751.303C351.116 751.303 350.616 750.803 350.616 750.185Z" fill="white" fill-opacity="0.1"/>
<path d="M330.597 858.668C330.597 858.051 331.097 857.55 331.715 857.55C332.333 857.55 332.833 858.051 332.833 858.668C332.833 859.285 332.333 859.785 331.715 859.785C331.097 859.785 330.597 859.285 330.597 858.668Z" fill="white" fill-opacity="0.1"/>
<path d="M346.273 815.183C347.28 814.737 348.458 815.192 348.904 816.199C349.35 817.205 348.895 818.383 347.887 818.828C346.88 819.274 345.702 818.819 345.256 817.812C344.81 816.806 345.266 815.628 346.273 815.183Z" fill="white" fill-opacity="0.15"/>
<path d="M199.569 820.728C199.569 819.627 200.462 818.735 201.563 818.735C202.665 818.735 203.558 819.627 203.558 820.728C203.558 821.829 202.665 822.722 201.563 822.722C200.462 822.722 199.569 821.829 199.569 820.728Z" fill="white" fill-opacity="0.15"/>
<path d="M265.708 853.695C266.487 852.917 267.75 852.917 268.529 853.695C269.308 854.474 269.308 855.736 268.529 856.514C267.75 857.293 266.487 857.293 265.708 856.514C264.93 855.736 264.93 854.474 265.708 853.695Z" fill="white" fill-opacity="0.15"/>
<path d="M203.672 751.258C203.823 752.467 203.943 752.587 205.182 752.769C203.974 752.92 203.853 753.041 203.672 754.279C203.52 753.071 203.4 752.95 202.161 752.769C203.369 752.618 203.49 752.467 203.672 751.258Z" fill="white" fill-opacity="0.1"/>
<path d="M116.146 894.171C116.298 895.379 116.418 895.5 117.657 895.681C116.449 895.832 116.328 895.953 116.146 897.191C115.995 895.983 115.875 895.862 114.636 895.681C115.844 895.53 115.965 895.379 116.146 894.171Z" fill="white" fill-opacity="0.1"/>
<path d="M62.5106 741.031C62.6617 742.239 62.7826 742.36 64.0216 742.541C62.8128 742.692 62.692 742.813 62.5106 744.052C62.3596 742.843 62.2387 742.723 60.9997 742.541C62.2085 742.39 62.3293 742.239 62.5106 741.031Z" fill="white" fill-opacity="0.1"/>
</svg>
